<mxfile host="app.diagrams.net" modified="2022-10-31T09:15:03.031Z" agent="5.0 (Windows NT 10.0; Win64; x64) AppleWebKit/537.36 (KHTML, like Gecko) Chrome/107.0.0.0 Safari/537.36 Edg/107.0.1418.26" etag="otJXkIqteGgMQMCF8fsP" version="20.5.1" type="github">
  <diagram id="KxDcguO1vUrhgD5Gz2I1" name="第 1 页">
    <mxGraphModel dx="1422" dy="762" grid="1" gridSize="10" guides="1" tooltips="1" connect="1" arrows="1" fold="1" page="1" pageScale="1" pageWidth="827" pageHeight="1169" math="0" shadow="0">
      <root>
        <mxCell id="0" />
        <mxCell id="1" parent="0" />
        <mxCell id="d41J85w5ZHwZ6zlmDUWE-3" style="edgeStyle=orthogonalEdgeStyle;rounded=0;orthogonalLoop=1;jettySize=auto;html=1;entryX=0.5;entryY=0;entryDx=0;entryDy=0;" edge="1" parent="1" source="d41J85w5ZHwZ6zlmDUWE-1" target="d41J85w5ZHwZ6zlmDUWE-2">
          <mxGeometry relative="1" as="geometry" />
        </mxCell>
        <mxCell id="d41J85w5ZHwZ6zlmDUWE-1" value="后台管理系统" style="rounded=1;whiteSpace=wrap;html=1;fontSize=12;glass=0;strokeWidth=1;shadow=0;" vertex="1" parent="1">
          <mxGeometry x="254" y="150" width="120" height="40" as="geometry" />
        </mxCell>
        <mxCell id="d41J85w5ZHwZ6zlmDUWE-5" value="" style="edgeStyle=orthogonalEdgeStyle;rounded=0;orthogonalLoop=1;jettySize=auto;html=1;" edge="1" parent="1" source="d41J85w5ZHwZ6zlmDUWE-2">
          <mxGeometry relative="1" as="geometry">
            <mxPoint x="314" y="290" as="targetPoint" />
          </mxGeometry>
        </mxCell>
        <mxCell id="d41J85w5ZHwZ6zlmDUWE-2" value="信息管理页面" style="rounded=1;whiteSpace=wrap;html=1;fontSize=12;glass=0;strokeWidth=1;shadow=0;" vertex="1" parent="1">
          <mxGeometry x="254" y="220" width="120" height="40" as="geometry" />
        </mxCell>
        <mxCell id="d41J85w5ZHwZ6zlmDUWE-11" value="" style="edgeStyle=orthogonalEdgeStyle;rounded=0;orthogonalLoop=1;jettySize=auto;html=1;" edge="1" parent="1" source="d41J85w5ZHwZ6zlmDUWE-9">
          <mxGeometry relative="1" as="geometry">
            <mxPoint x="314" y="360" as="targetPoint" />
          </mxGeometry>
        </mxCell>
        <mxCell id="d41J85w5ZHwZ6zlmDUWE-9" value="用户根据表单&lt;br&gt;输入需要添加的信息" style="shape=parallelogram;perimeter=parallelogramPerimeter;whiteSpace=wrap;html=1;fixedSize=1;rounded=0;glass=0;" vertex="1" parent="1">
          <mxGeometry x="239" y="290" width="150" height="50" as="geometry" />
        </mxCell>
        <mxCell id="d41J85w5ZHwZ6zlmDUWE-14" value="" style="edgeStyle=orthogonalEdgeStyle;rounded=0;orthogonalLoop=1;jettySize=auto;html=1;" edge="1" parent="1" source="d41J85w5ZHwZ6zlmDUWE-12" target="d41J85w5ZHwZ6zlmDUWE-13">
          <mxGeometry relative="1" as="geometry" />
        </mxCell>
        <mxCell id="d41J85w5ZHwZ6zlmDUWE-15" value="否" style="edgeLabel;html=1;align=center;verticalAlign=middle;resizable=0;points=[];" vertex="1" connectable="0" parent="d41J85w5ZHwZ6zlmDUWE-14">
          <mxGeometry x="-0.1892" relative="1" as="geometry">
            <mxPoint as="offset" />
          </mxGeometry>
        </mxCell>
        <mxCell id="d41J85w5ZHwZ6zlmDUWE-18" style="edgeStyle=orthogonalEdgeStyle;rounded=0;orthogonalLoop=1;jettySize=auto;html=1;entryX=0;entryY=0.5;entryDx=0;entryDy=0;" edge="1" parent="1" source="d41J85w5ZHwZ6zlmDUWE-12" target="d41J85w5ZHwZ6zlmDUWE-17">
          <mxGeometry relative="1" as="geometry" />
        </mxCell>
        <mxCell id="d41J85w5ZHwZ6zlmDUWE-19" value="是" style="edgeLabel;html=1;align=center;verticalAlign=middle;resizable=0;points=[];" vertex="1" connectable="0" parent="d41J85w5ZHwZ6zlmDUWE-18">
          <mxGeometry x="-0.3491" relative="1" as="geometry">
            <mxPoint as="offset" />
          </mxGeometry>
        </mxCell>
        <mxCell id="d41J85w5ZHwZ6zlmDUWE-12" value="&lt;span style=&quot;font-size: 11px;&quot;&gt;前端组件&lt;br&gt;&lt;/span&gt;校验数据格式&lt;br&gt;是否合法" style="rhombus;whiteSpace=wrap;html=1;" vertex="1" parent="1">
          <mxGeometry x="234" y="360" width="160" height="60" as="geometry" />
        </mxCell>
        <mxCell id="d41J85w5ZHwZ6zlmDUWE-16" style="edgeStyle=orthogonalEdgeStyle;rounded=0;orthogonalLoop=1;jettySize=auto;html=1;entryX=0.073;entryY=0.4;entryDx=0;entryDy=0;entryPerimeter=0;" edge="1" parent="1" source="d41J85w5ZHwZ6zlmDUWE-13" target="d41J85w5ZHwZ6zlmDUWE-9">
          <mxGeometry relative="1" as="geometry">
            <mxPoint x="110" y="310.0000000000001" as="targetPoint" />
            <Array as="points">
              <mxPoint x="110" y="310" />
            </Array>
          </mxGeometry>
        </mxCell>
        <mxCell id="d41J85w5ZHwZ6zlmDUWE-13" value="输入框下方&lt;br&gt;红色文字提示&lt;br&gt;错误信息" style="whiteSpace=wrap;html=1;" vertex="1" parent="1">
          <mxGeometry x="50" y="365" width="120" height="50" as="geometry" />
        </mxCell>
        <mxCell id="d41J85w5ZHwZ6zlmDUWE-21" style="edgeStyle=orthogonalEdgeStyle;rounded=0;orthogonalLoop=1;jettySize=auto;html=1;entryX=0.5;entryY=0;entryDx=0;entryDy=0;" edge="1" parent="1" source="d41J85w5ZHwZ6zlmDUWE-17" target="d41J85w5ZHwZ6zlmDUWE-20">
          <mxGeometry relative="1" as="geometry" />
        </mxCell>
        <mxCell id="d41J85w5ZHwZ6zlmDUWE-17" value="发起请求&lt;br&gt;将数据发送给后端" style="whiteSpace=wrap;html=1;" vertex="1" parent="1">
          <mxGeometry x="430" y="365" width="120" height="50" as="geometry" />
        </mxCell>
        <mxCell id="d41J85w5ZHwZ6zlmDUWE-23" style="edgeStyle=orthogonalEdgeStyle;rounded=0;orthogonalLoop=1;jettySize=auto;html=1;entryX=0.5;entryY=0;entryDx=0;entryDy=0;" edge="1" parent="1" source="d41J85w5ZHwZ6zlmDUWE-20" target="d41J85w5ZHwZ6zlmDUWE-22">
          <mxGeometry relative="1" as="geometry">
            <mxPoint x="370" y="475" as="targetPoint" />
            <Array as="points">
              <mxPoint x="380" y="475" />
            </Array>
          </mxGeometry>
        </mxCell>
        <mxCell id="d41J85w5ZHwZ6zlmDUWE-24" value="是" style="edgeLabel;html=1;align=center;verticalAlign=middle;resizable=0;points=[];" vertex="1" connectable="0" parent="d41J85w5ZHwZ6zlmDUWE-23">
          <mxGeometry x="0.1307" y="1" relative="1" as="geometry">
            <mxPoint as="offset" />
          </mxGeometry>
        </mxCell>
        <mxCell id="d41J85w5ZHwZ6zlmDUWE-25" style="edgeStyle=orthogonalEdgeStyle;rounded=0;orthogonalLoop=1;jettySize=auto;html=1;startArrow=none;" edge="1" parent="1" source="d41J85w5ZHwZ6zlmDUWE-27" target="d41J85w5ZHwZ6zlmDUWE-9">
          <mxGeometry relative="1" as="geometry">
            <mxPoint x="600" y="300" as="targetPoint" />
            <Array as="points" />
          </mxGeometry>
        </mxCell>
        <mxCell id="d41J85w5ZHwZ6zlmDUWE-20" value="&lt;span style=&quot;font-size: 11px;&quot;&gt;后端&lt;br&gt;&lt;/span&gt;校验数据&lt;br&gt;是否合法" style="rhombus;whiteSpace=wrap;html=1;" vertex="1" parent="1">
          <mxGeometry x="410" y="440" width="160" height="70" as="geometry" />
        </mxCell>
        <mxCell id="d41J85w5ZHwZ6zlmDUWE-30" style="edgeStyle=orthogonalEdgeStyle;rounded=0;orthogonalLoop=1;jettySize=auto;html=1;" edge="1" parent="1" source="d41J85w5ZHwZ6zlmDUWE-22">
          <mxGeometry relative="1" as="geometry">
            <mxPoint x="380" y="600" as="targetPoint" />
          </mxGeometry>
        </mxCell>
        <mxCell id="d41J85w5ZHwZ6zlmDUWE-22" value="自动生成ID等内容&lt;br&gt;插入数据库" style="whiteSpace=wrap;html=1;" vertex="1" parent="1">
          <mxGeometry x="320" y="520" width="120" height="50" as="geometry" />
        </mxCell>
        <mxCell id="d41J85w5ZHwZ6zlmDUWE-27" value="弹出提示&lt;br&gt;后端返回的错误信息" style="whiteSpace=wrap;html=1;" vertex="1" parent="1">
          <mxGeometry x="430" y="290" width="120" height="50" as="geometry" />
        </mxCell>
        <mxCell id="d41J85w5ZHwZ6zlmDUWE-28" value="" style="edgeStyle=orthogonalEdgeStyle;rounded=0;orthogonalLoop=1;jettySize=auto;html=1;endArrow=none;" edge="1" parent="1" source="d41J85w5ZHwZ6zlmDUWE-20" target="d41J85w5ZHwZ6zlmDUWE-27">
          <mxGeometry relative="1" as="geometry">
            <mxPoint x="378.9862068965517" y="315.0344827586207" as="targetPoint" />
            <mxPoint x="569.92118226601" y="475.0344827586207" as="sourcePoint" />
            <Array as="points">
              <mxPoint x="600" y="475" />
              <mxPoint x="600" y="315" />
            </Array>
          </mxGeometry>
        </mxCell>
        <mxCell id="d41J85w5ZHwZ6zlmDUWE-29" value="否" style="edgeLabel;html=1;align=center;verticalAlign=middle;resizable=0;points=[];" vertex="1" connectable="0" parent="d41J85w5ZHwZ6zlmDUWE-28">
          <mxGeometry x="-0.3855" y="-1" relative="1" as="geometry">
            <mxPoint as="offset" />
          </mxGeometry>
        </mxCell>
        <mxCell id="d41J85w5ZHwZ6zlmDUWE-31" value="返回正确请求信息&lt;br&gt;前端提示用户&lt;br&gt;请求成功" style="whiteSpace=wrap;html=1;" vertex="1" parent="1">
          <mxGeometry x="320" y="600" width="120" height="50" as="geometry" />
        </mxCell>
      </root>
    </mxGraphModel>
  </diagram>
</mxfile>
